<?xml version="1.0" encoding="UTF-8" standalone="no"?>
<!DOCTYPE svg PUBLIC "-//W3C//DTD SVG 1.1//EN" "http://www.w3.org/Graphics/SVG/1.1/DTD/svg11.dtd">
<svg xmlns="http://www.w3.org/2000/svg" version="1.1" viewBox="0.00 0.00 1831.00 1144.00">
<g stroke-width="2.00" fill="none" stroke-linecap="butt">
<path stroke="#7a8766" vector-effect="non-scaling-stroke" d="
  M 904.77 94.66
  L 899.96 92.43
  A 1.14 1.12 45.3 0 0 899.02 92.42
  L 894.30 94.60"
/>
<path stroke="#236c62" vector-effect="non-scaling-stroke" d="
  M 690.51 259.81
  L 679.74 254.67"
/>
<path stroke="#236c62" vector-effect="non-scaling-stroke" d="
  M 616.45 255.67
  L 606.13 260.57"
/>
<path stroke="#236c62" vector-effect="non-scaling-stroke" d="
  M 1119.04 254.79
  L 1108.51 259.78"
/>
<path stroke="#236c62" vector-effect="non-scaling-stroke" d="
  M 1193.03 260.66
  L 1182.50 255.64"
/>
<path stroke="#7a8766" vector-effect="non-scaling-stroke" d="
  M 807.51 199.79
  L 807.62 189.25"
/>
<path stroke="#7a8766" vector-effect="non-scaling-stroke" d="
  M 991.32 189.27
  L 991.32 199.78"
/>
<path stroke="#236c62" vector-effect="non-scaling-stroke" d="
  M 557.28 318.85
  L 557.29 329.50"
/>
<path stroke="#236c62" vector-effect="non-scaling-stroke" d="
  M 557.27 386.37
  L 557.28 376.59"
/>
<path stroke="#236c62" vector-effect="non-scaling-stroke" d="
  M 1241.67 329.49
  L 1241.63 318.84"
/>
<path stroke="#236c62" vector-effect="non-scaling-stroke" d="
  M 1241.64 376.55
  L 1241.72 386.46"
/>
<path stroke="#102043" vector-effect="non-scaling-stroke" d="
  M 956.01 336.25
  Q 951.01 340.03 948.98 346.24"
/>
<path stroke="#102043" vector-effect="non-scaling-stroke" d="
  M 932.33 336.34
  Q 929.32 331.28 923.52 330.00
  Q 916.80 328.52 911.43 332.57
  C 903.90 338.26 902.46 348.85 909.19 355.60
  A 0.76 0.75 -56.0 0 1 909.35 356.43
  Q 905.85 364.89 909.89 372.68"
/>
<path stroke="#102043" vector-effect="non-scaling-stroke" d="
  M 905.08 377.58
  Q 885.38 367.37 864.98 358.54"
/>
<path stroke="#102043" vector-effect="non-scaling-stroke" d="
  M 933.65 349.47
  Q 930.51 357.14 923.24 359.26"
/>
<path stroke="#102043" vector-effect="non-scaling-stroke" d="
  M 912.89 359.50
  Q 911.17 362.98 912.51 367.17"
/>
<path stroke="#102043" vector-effect="non-scaling-stroke" d="
  M 919.86 375.81
  L 935.45 386.41
  A 0.32 0.32 0.0 0 0 935.90 386.32
  L 941.84 377.42"
/>
<path stroke="#102043" vector-effect="non-scaling-stroke" d="
  M 948.66 367.06
  L 952.89 360.62
  Q 953.17 360.18 952.81 359.81
  Q 950.58 357.52 949.73 355.11"
/>
<path stroke="#102043" vector-effect="non-scaling-stroke" d="
  M 970.64 362.23
  Q 964.13 365.48 957.65 363.23
  A 0.72 0.71 -61.2 0 0 956.84 363.47
  L 955.02 365.85"
/>
<path stroke="#102043" vector-effect="non-scaling-stroke" d="
  M 946.40 378.74
  L 939.96 388.12
  A 1.21 1.20 -56.2 0 0 940.29 389.81
  Q 949.11 395.61 958.59 402.10
  Q 960.28 403.26 962.33 403.46
  Q 968.70 404.08 973.54 399.94
  A 0.56 0.56 0.0 0 0 973.60 399.14
  Q 966.45 391.08 971.15 381.08"
/>
<path stroke="#102043" vector-effect="non-scaling-stroke" d="
  M 914.08 382.62
  L 930.52 392.57
  Q 931.46 393.13 932.08 392.24
  L 932.65 391.43
  Q 933.27 390.55 932.37 389.95
  L 917.33 379.77"
/>
<path stroke="#102043" vector-effect="non-scaling-stroke" d="
  M 971.89 425.82
  Q 963.50 417.13 953.96 409.47"
/>
<path stroke="#102043" vector-effect="non-scaling-stroke" d="
  M 948.02 404.82
  L 935.85 396.15
  Q 935.06 395.59 935.53 394.75
  L 936.10 393.71
  Q 936.58 392.83 937.43 393.37
  Q 943.19 396.97 949.48 401.52
  Q 956.56 406.64 961.42 407.62
  Q 967.94 408.92 974.65 404.28
  C 975.47 403.72 976.01 403.00 976.75 402.41
  Q 977.17 402.07 977.69 402.22
  Q 988.23 405.31 994.84 398.17
  Q 998.42 394.31 998.94 388.83
  Q 999.35 384.54 996.88 380.21
  Q 991.08 370.01 977.28 374.84"
/>
<path stroke="#102043" vector-effect="non-scaling-stroke" d="
  M 978.04 352.30
  Q 980.09 338.21 966.57 334.37"
/>
<path stroke="#853d61" vector-effect="non-scaling-stroke" d="
  M 615.51 543.73
  L 605.31 548.59"
/>
<path stroke="#853d61" vector-effect="non-scaling-stroke" d="
  M 1193.57 548.57
  L 1183.44 543.68"
/>
<path stroke="#853d61" vector-effect="non-scaling-stroke" d="
  M 601.10 701.16
  L 592.92 697.19"
/>
<path stroke="#853d61" vector-effect="non-scaling-stroke" d="
  M 557.28 641.34
  L 557.31 625.23"
/>
<path stroke="#853d61" vector-effect="non-scaling-stroke" d="
  M 1241.68 625.17
  L 1241.63 641.29"
/>
<path stroke="#853d61" vector-effect="non-scaling-stroke" d="
  M 1206.02 697.22
  L 1197.76 701.20"
/>
<path stroke="#7a8766" vector-effect="non-scaling-stroke" d="
  M 850.06 848.47
  L 839.48 843.40"
/>
<path stroke="#7a8766" vector-effect="non-scaling-stroke" d="
  M 807.68 789.99
  L 807.72 779.49"
/>
<path stroke="#7a8766" vector-effect="non-scaling-stroke" d="
  M 991.29 779.42
  L 991.28 790.03"
/>
<path stroke="#7a8766" vector-effect="non-scaling-stroke" d="
  M 959.35 843.47
  L 948.72 848.58"
/>
<path stroke="#102043" vector-effect="non-scaling-stroke" d="
  M 909.39 343.35
  Q 908.50 349.79 913.17 353.27
  Q 916.51 355.76 920.57 355.33
  Q 924.88 354.88 927.91 351.40
  Q 931.17 347.66 929.91 342.66"
/>
<path stroke="#853d61" vector-effect="non-scaling-stroke" d="
  M 929.91 342.66
  Q 927.63 334.15 919.41 334.25
  C 917.14 334.27 913.94 336.10 912.53 337.27
  Q 910.43 339.03 909.39 343.35"
/>
<path stroke="#751e1e" vector-effect="non-scaling-stroke" d="
  M 929.91 342.66
  Q 930.51 352.26 922.23 354.58
  Q 916.01 356.33 911.81 351.41
  Q 910.50 349.88 910.01 347.61
  Q 909.57 345.52 909.39 343.35"
/>
<path stroke="#102043" vector-effect="non-scaling-stroke" d="
  M 965.62 359.58
  Q 967.98 360.08 968.96 357.92"
/>
<path stroke="#7a8766" vector-effect="non-scaling-stroke" d="
  M 968.96 357.92
  Q 971.87 356.10 972.63 354.00
  Q 976.24 343.97 968.33 339.96
  Q 964.94 338.25 961.85 339.00
  C 956.25 340.35 952.89 345.17 953.56 350.91
  Q 954.14 355.95 958.95 358.52
  Q 960.19 359.19 962.22 359.25
  Q 964.05 359.30 965.62 359.58"
/>
<path stroke="#6a6823" vector-effect="non-scaling-stroke" d="
  M 968.96 357.92
  L 965.62 359.58"
/>
<path stroke="#236c62" vector-effect="non-scaling-stroke" d="
  M 981.05 378.24
  Q 980.58 378.45 980.00 378.72
  Q 979.49 378.96 979.09 379.35
  C 977.34 381.05 975.44 381.70 974.68 384.29
  C 973.42 388.58 974.12 393.30 977.54 396.13
  Q 981.48 399.38 985.26 398.38
  Q 996.81 395.31 993.46 383.23
  Q 992.91 381.25 989.22 378.64"
/>
<path stroke="#102043" vector-effect="non-scaling-stroke" d="
  M 989.22 378.64
  Q 985.03 376.56 981.05 378.24"
/>
<path stroke="#134d1f" vector-effect="non-scaling-stroke" d="
  M 989.22 378.64
  Q 985.43 377.72 981.05 378.24"
/>
<path stroke="#853d61" vector-effect="non-scaling-stroke" d="
  M 881.11 425.57
  Q 875.08 427.14 870.37 430.67
  A 1.02 1.02 0.0 0 0 870.10 431.99
  Q 872.83 436.78 871.41 441.50
  Q 870.31 445.16 867.25 447.51
  C 865.43 448.91 860.86 451.17 858.50 450.14
  A 1.32 1.32 0.0 0 0 856.69 451.08
  Q 855.32 457.70 855.77 462.54
  Q 855.81 462.95 856.11 463.25
  Q 856.39 463.53 856.75 463.36
  Q 857.24 463.12 857.76 463.27
  C 859.44 463.76 861.00 463.46 862.57 464.42
  Q 870.97 469.51 867.94 479.30
  C 867.49 480.78 866.64 481.70 865.72 482.89
  Q 865.35 483.35 865.78 483.76
  Q 870.04 487.86 875.27 490.11
  Q 875.86 490.36 876.19 489.80
  Q 880.42 482.47 888.77 483.49
  Q 895.27 484.28 897.84 491.05
  Q 898.01 491.50 898.48 491.45
  C 902.16 491.09 905.79 488.17 908.98 486.50
  Q 910.04 485.94 909.39 484.94
  C 907.40 481.83 907.12 477.38 908.87 473.94
  Q 913.09 465.65 921.87 466.87
  Q 922.58 466.97 922.74 466.28
  Q 924.16 460.11 923.66 454.67
  Q 923.60 454.08 923.01 454.04
  Q 918.11 453.74 915.58 451.75
  Q 909.80 447.20 911.12 439.83
  C 911.49 437.73 912.57 435.70 913.83 433.97
  A 0.74 0.74 0.0 0 0 913.63 432.91
  Q 911.79 431.74 910.29 430.19
  C 908.72 428.55 906.45 428.42 904.62 426.88
  A 0.79 0.79 0.0 0 0 903.40 427.14
  C 902.21 429.58 899.50 432.07 896.88 432.88
  Q 886.03 436.25 881.66 425.84
  Q 881.50 425.47 881.11 425.57"
/>
<path stroke="#751e1e" vector-effect="non-scaling-stroke" d="
  M 879.6484 473.0543
  A 17.70 17.15 124.8 0 0 903.8327 468.3077
  A 17.70 17.15 124.8 0 0 899.8516 443.9857
  A 17.70 17.15 124.8 0 0 875.6673 448.7323
  A 17.70 17.15 124.8 0 0 879.6484 473.0543"
/>
<path stroke="#6a6823" vector-effect="non-scaling-stroke" d="
  M 884.85 447.00
  A 12.79 12.36 -59.6 0 0 877.61 455.91
  A 12.81 12.38 -58.8 0 0 880.47 467.28
  A 12.79 12.37 -60.8 0 0 888.75 471.18
  A 12.80 12.38 -58.7 0 0 900.83 464.02
  A 12.78 12.36 -58.9 0 0 900.78 452.23
  A 12.79 12.36 -59.9 0 0 889.79 445.83"
/>
<path stroke="#134d1f" vector-effect="non-scaling-stroke" d="
  M 889.79 445.83
  A 12.83 12.31 -58.3 0 0 884.85 447.00"
/>
<path stroke="#7cb442" vector-effect="non-scaling-stroke" d="
  M 889.79 445.83
  L 884.85 447.00"
/>
</g>
<path fill="#203f86" d="
  M 904.77 94.66
  L 899.96 92.43
  A 1.14 1.12 45.3 0 0 899.02 92.42
  L 894.30 94.60
  L 894.18 75.55
  Q 894.18 75.10 893.74 74.99
  Q 875.20 70.30 870.11 53.15
  C 865.61 37.97 873.88 22.09 888.32 16.40
  C 904.74 9.93 924.27 18.98 928.87 36.42
  C 933.50 53.99 923.10 71.21 905.40 74.90
  Q 904.84 75.02 904.84 75.59
  L 904.77 94.66
  Z"
/>
<path fill="#203f86" d="
  M 690.51 259.81
  L 679.74 254.67
  L 679.73 130.97
  Q 679.73 130.36 679.14 130.22
  C 669.41 127.90 661.50 121.78 657.54 113.16
  C 648.81 94.21 660.53 72.38 681.55 69.76
  C 698.02 67.70 713.35 79.61 715.40 95.96
  C 717.43 112.21 707.23 126.60 691.20 130.20
  Q 690.52 130.36 690.52 131.06
  L 690.51 259.81
  Z"
/>
<path fill="#203f86" d="
  M 1119.04 254.79
  L 1108.51 259.78
  L 1108.52 132.22
  A 2.28 2.27 7.9 0 0 1106.86 130.03
  Q 1092.71 125.97 1086.63 114.41
  C 1078.55 99.06 1084.82 80.26 1100.21 72.69
  C 1110.86 67.45 1123.65 68.73 1132.88 76.38
  C 1145.16 86.54 1147.89 103.30 1139.30 116.67
  Q 1132.60 127.09 1119.49 130.31
  Q 1119.05 130.42 1119.05 130.88
  L 1119.04 254.79
  Z"
/>
<path fill="#d3cf46" d="
  M 904.77 94.66
  L 983.35 132.21
  A 0.29 0.29 0.0 0 1 983.35 132.73
  L 899.69 172.67
  A 0.48 0.46 43.6 0 1 899.28 172.67
  L 815.72 132.76
  A 0.36 0.36 0.0 0 1 815.72 132.11
  L 894.30 94.60
  L 899.02 92.42
  A 1.14 1.12 45.3 0 1 899.96 92.43
  L 904.77 94.66
  Z"
/>
<path fill="#203f86" d="
  M 616.45 255.67
  L 606.13 260.57
  L 574.75 229.23
  A 3.52 3.50 22.6 0 1 573.72 226.75
  L 573.74 195.45
  Q 573.74 194.87 573.17 194.76
  C 557.71 191.96 545.85 182.47 540.37 168.16
  C 532.49 147.61 542.36 125.27 562.11 116.14
  C 581.34 107.25 603.26 114.67 614.22 132.46
  C 629.96 157.99 613.69 189.88 584.89 194.70
  Q 584.34 194.79 584.34 195.36
  C 584.29 204.51 583.83 214.07 584.64 223.33
  Q 584.69 223.84 585.04 224.19
  L 616.45 255.67
  Z"
/>
<path fill="#203f86" d="
  M 1193.03 260.66
  L 1182.50 255.64
  L 1214.07 224.06
  A 1.28 1.25 68.4 0 0 1214.45 223.15
  L 1214.41 195.42
  Q 1214.41 194.86 1213.87 194.75
  Q 1186.96 189.02 1179.80 164.04
  Q 1178.44 159.28 1178.66 152.19
  C 1179.26 133.16 1193.33 116.49 1211.88 113.23
  C 1238.00 108.65 1260.43 127.05 1261.10 153.44
  C 1261.63 174.48 1245.91 191.11 1225.68 194.73
  Q 1225.17 194.82 1225.17 195.34
  L 1225.33 227.16
  A 1.85 1.83 -23.0 0 1 1224.80 228.45
  L 1193.03 260.66
  Z"
/>
<path fill="#d3cf46" d="
  M 807.51 199.79
  L 807.62 189.25
  L 807.79 142.01
  Q 807.79 141.45 808.29 141.69
  L 893.26 182.31
  Q 893.79 182.56 893.79 183.15
  L 893.79 285.41
  A 0.24 0.24 0.0 0 1 893.44 285.63
  L 808.03 244.81
  A 0.85 0.82 13.1 0 1 807.55 244.06
  L 807.51 199.79
  Z"
/>
<path fill="#d3cf46" d="
  M 991.32 189.27
  L 991.32 199.78
  L 991.34 244.03
  A 0.99 0.99 0.0 0 1 990.78 244.92
  L 905.46 285.68
  A 0.28 0.27 -12.7 0 1 905.07 285.44
  L 905.08 183.04
  Q 905.08 182.62 905.45 182.43
  L 990.83 141.64
  Q 991.33 141.40 991.33 141.96
  L 991.32 189.27
  Z"
/>
<path fill="#203f86" d="
  M 807.62 189.25
  L 807.51 199.79
  L 778.84 199.81
  Q 778.32 199.81 778.20 200.31
  Q 774.65 214.49 763.45 220.91
  C 745.78 231.05 723.06 221.83 718.31 201.50
  C 713.75 181.98 729.08 162.81 749.62 163.98
  C 764.07 164.79 774.77 174.77 778.24 188.72
  Q 778.37 189.21 778.87 189.21
  L 807.62 189.25
  Z"
/>
<path fill="#203f86" d="
  M 991.32 199.78
  L 991.32 189.27
  L 1019.77 189.24
  Q 1020.34 189.24 1020.50 188.70
  C 1024.90 173.78 1035.67 163.56 1051.60 164.01
  C 1070.25 164.53 1083.66 180.82 1080.95 199.29
  C 1078.23 217.84 1059.22 229.29 1041.37 223.64
  C 1030.69 220.25 1023.11 211.15 1020.61 200.34
  Q 1020.48 199.80 1019.93 199.80
  L 991.32 199.78
  Z"
/>
<path fill="#25993e" d="
  M 679.74 254.67
  L 690.51 259.81
  L 732.93 280.08
  Q 733.55 280.38 732.93 280.68
  L 649.49 320.54
  Q 649.12 320.72 648.74 320.54
  L 565.31 280.68
  A 0.35 0.35 0.0 0 1 565.31 280.04
  L 606.13 260.57
  L 616.45 255.67
  L 648.45 240.36
  A 1.64 1.64 0.0 0 1 649.87 240.36
  L 679.74 254.67
  Z"
/>
<path fill="#25993e" d="
  M 1182.50 255.64
  L 1193.03 260.66
  L 1233.69 280.07
  Q 1234.33 280.37 1233.69 280.68
  L 1150.06 320.61
  A 0.52 0.50 43.7 0 1 1149.61 320.61
  L 1066.08 280.69
  A 0.36 0.36 0.0 0 1 1066.08 280.04
  L 1108.51 259.78
  L 1119.04 254.79
  L 1149.30 240.33
  A 1.25 1.24 44.2 0 1 1150.39 240.32
  L 1182.50 255.64
  Z"
/>
<path fill="#000000" d="
  M 797.64 251.59
  L 805.41 255.25
  A 0.53 0.53 0.0 0 1 805.54 256.12
  Q 804.59 256.98 803.51 257.60
  Q 778.92 271.72 752.13 287.24
  A 0.33 0.33 0.0 0 1 751.64 286.96
  L 751.47 277.70
  Q 751.46 277.14 750.95 276.91
  L 741.94 272.78
  A 0.41 0.41 0.0 0 1 741.91 272.05
  L 796.53 240.50
  A 0.32 0.32 0.0 0 1 797.01 240.78
  L 797.01 250.59
  Q 797.01 251.29 797.64 251.59
  Z"
/>
<path fill="#000000" d="
  M 1001.89 251.19
  L 1001.99 240.84
  A 0.35 0.35 0.0 0 1 1002.52 240.54
  L 1057.12 272.08
  A 0.35 0.35 0.0 0 1 1057.10 272.70
  L 1047.58 277.19
  A 0.35 0.35 0.0 0 0 1047.38 277.50
  L 1047.40 286.94
  A 0.35 0.35 0.0 0 1 1046.87 287.25
  L 992.99 256.13
  A 0.35 0.35 0.0 0 1 993.02 255.51
  L 1001.69 251.50
  A 0.35 0.35 0.0 0 0 1001.89 251.19
  Z"
/>
<path fill="#203f86" d="
  M 557.28 318.85
  L 557.29 329.50
  L 527.21 329.50
  Q 526.68 329.50 526.30 329.12
  L 492.84 295.65
  Q 492.33 295.14 491.68 295.46
  C 483.88 299.41 475.51 300.05 467.59 295.89
  C 450.24 286.77 450.25 261.83 467.38 252.43
  C 477.54 246.86 491.17 249.41 498.36 258.67
  Q 507.05 269.87 501.67 284.42
  C 501.33 285.36 500.59 286.29 500.24 287.22
  Q 500.05 287.70 500.42 288.07
  L 530.82 318.44
  Q 531.22 318.84 531.78 318.84
  L 557.28 318.85
  Z"
/>
<path fill="#203f86" d="
  M 1241.67 329.49
  L 1241.63 318.84
  L 1267.05 318.85
  Q 1267.59 318.85 1267.98 318.47
  L 1298.45 287.98
  Q 1298.79 287.65 1298.60 287.21
  C 1297.85 285.45 1296.82 283.64 1296.30 281.78
  Q 1291.80 265.66 1304.04 255.15
  C 1314.87 245.85 1331.07 248.29 1339.58 259.63
  C 1344.62 266.34 1345.69 275.55 1342.59 283.23
  C 1339.15 291.75 1331.41 297.66 1322.21 298.64
  C 1316.88 299.20 1312.09 297.78 1306.93 295.40
  Q 1306.42 295.17 1306.03 295.56
  L 1272.55 329.10
  Q 1272.18 329.47 1271.65 329.47
  L 1241.67 329.49
  Z"
/>
<path fill="#25993e" d="
  M 557.27 386.37
  L 557.28 376.59
  L 557.29 329.50
  L 557.28 318.85
  L 557.28 289.85
  A 0.33 0.33 0.0 0 1 557.75 289.55
  L 643.23 330.39
  A 0.46 0.45 12.2 0 1 643.50 330.80
  L 643.49 433.24
  A 0.35 0.35 0.0 0 1 642.99 433.55
  L 557.97 392.92
  Q 557.50 392.70 557.48 392.18
  L 557.27 386.37
  Z"
/>
<path fill="#25993e" d="
  M 740.72 392.73
  L 655.23 433.56
  A 0.31 0.31 0.0 0 1 654.79 433.28
  L 654.79 330.70
  A 0.31 0.31 0.0 0 1 654.97 330.42
  L 740.55 289.52
  A 0.31 0.31 0.0 0 1 740.99 289.80
  L 740.90 392.45
  A 0.31 0.31 0.0 0 1 740.72 392.73
  Z"
/>
<path fill="#25993e" d="
  M 1143.75 433.56
  L 1058.14 392.61
  A 0.34 0.34 0.0 0 1 1057.95 392.31
  L 1057.95 289.83
  A 0.34 0.34 0.0 0 1 1058.44 289.52
  L 1144.05 330.43
  A 0.34 0.34 0.0 0 1 1144.24 330.73
  L 1144.24 433.25
  A 0.34 0.34 0.0 0 1 1143.75 433.56
  Z"
/>
<path fill="#25993e" d="
  M 1241.63 318.84
  L 1241.67 329.49
  L 1241.64 376.55
  L 1241.72 386.46
  L 1241.76 391.90
  A 1.10 1.08 -13.1 0 1 1241.14 392.88
  L 1156.11 433.48
  Q 1155.53 433.76 1155.53 433.11
  L 1155.53 331.01
  A 0.81 0.81 0.0 0 1 1155.99 330.28
  L 1240.99 289.69
  Q 1241.53 289.43 1241.53 290.03
  L 1241.63 318.84
  Z"
/>
<path fill="#000000" d="
  M 956.01 336.25
  Q 951.01 340.03 948.98 346.24
  Q 947.05 346.42 945.56 346.33
  Q 943.58 346.21 942.53 345.01
  Q 941.46 343.78 940.58 342.44
  Q 940.27 341.97 940.68 341.59
  Q 944.36 338.17 944.36 333.05
  C 944.37 327.56 937.56 325.68 934.40 330.05
  A 1.82 1.80 57.3 0 0 934.10 331.47
  Q 934.64 334.12 932.33 336.34
  Q 929.32 331.28 923.52 330.00
  Q 916.80 328.52 911.43 332.57
  C 903.90 338.26 902.46 348.85 909.19 355.60
  A 0.76 0.75 -56.0 0 1 909.35 356.43
  Q 905.85 364.89 909.89 372.68
  L 905.08 377.58
  Q 885.38 367.37 864.98 358.54
  Q 859.29 344.34 868.49 332.74
  Q 868.81 332.34 868.99 332.82
  Q 875.64 351.18 894.54 355.26
  Q 896.36 355.65 898.14 355.20
  C 903.04 353.97 901.85 347.61 897.44 346.73
  Q 887.71 344.78 881.91 336.96
  Q 878.98 332.99 878.91 328.36
  Q 878.82 322.35 882.59 318.71
  Q 889.62 311.95 898.37 309.23
  Q 903.08 307.77 909.10 306.92
  Q 919.09 305.50 924.54 313.63
  Q 926.04 315.89 925.43 318.86
  C 925.13 320.28 925.49 321.82 926.61 322.77
  Q 929.87 325.52 933.59 323.72
  Q 935.60 322.75 935.95 320.37
  C 936.87 314.19 934.45 309.05 929.98 304.95
  Q 929.64 304.64 930.10 304.58
  Q 954.19 301.23 975.90 309.50
  Q 976.79 309.84 975.91 310.19
  Q 971.81 311.84 968.64 314.31
  C 966.12 316.27 963.91 319.24 961.90 321.88
  Q 957.15 328.14 956.01 336.25
  Z"
/>
<path fill="#000000" d="
  M 971.89 425.82
  Q 963.50 417.13 953.96 409.47
  Q 953.02 407.84 951.86 406.42
  C 950.82 405.13 949.54 405.00 948.02 404.82
  L 935.85 396.15
  Q 935.06 395.59 935.53 394.75
  L 936.10 393.71
  Q 936.58 392.83 937.43 393.37
  Q 943.19 396.97 949.48 401.52
  Q 956.56 406.64 961.42 407.62
  Q 967.94 408.92 974.65 404.28
  C 975.47 403.72 976.01 403.00 976.75 402.41
  Q 977.17 402.07 977.69 402.22
  Q 988.23 405.31 994.84 398.17
  Q 998.42 394.31 998.94 388.83
  Q 999.35 384.54 996.88 380.21
  Q 991.08 370.01 977.28 374.84
  Q 980.52 369.38 981.16 363.75
  Q 981.91 357.24 978.04 352.30
  Q 980.09 338.21 966.57 334.37
  Q 968.63 329.26 972.02 325.22
  Q 975.12 321.54 978.90 319.88
  Q 983.58 317.82 987.60 317.46
  C 992.27 317.04 994.65 320.34 997.94 322.82
  C 1000.51 324.76 1001.28 328.20 999.44 330.96
  C 997.28 334.18 993.61 337.54 989.67 337.76
  C 983.88 338.10 983.79 345.31 989.39 346.69
  Q 991.66 347.24 994.11 346.52
  Q 1000.02 344.79 1004.49 340.74
  C 1006.40 339.01 1007.83 336.94 1009.19 334.78
  Q 1009.56 334.17 1010.04 334.70
  Q 1014.94 340.15 1017.92 345.12
  C 1020.55 349.51 1024.06 353.17 1026.05 357.88
  Q 1032.58 373.34 1019.12 384.35
  Q 1018.41 384.93 1018.90 385.71
  C 1024.62 394.85 1018.21 404.11 1010.42 409.26
  Q 1006.87 411.61 1003.75 412.90
  Q 994.93 416.57 984.61 416.71
  Q 983.94 416.72 983.97 417.39
  C 984.12 419.81 985.25 422.84 983.60 424.93
  C 982.04 426.91 980.12 427.08 977.74 426.67
  Q 974.87 426.17 971.89 425.82
  Z
  M 993.35 370.01
  C 996.92 370.72 1001.10 370.34 1004.68 370.16
  C 1009.35 369.94 1010.08 364.11 1006.15 362.02
  Q 1004.45 361.12 1002.70 361.20
  Q 999.51 361.36 996.70 361.12
  C 993.70 360.87 989.62 361.70 989.62 365.68
  C 989.62 367.64 991.48 369.63 993.35 370.01
  Z"
/>
<path fill="#203f86" d="
  M 932.33 336.34
  Q 936.47 342.53 933.65 349.47
  Q 930.51 357.14 923.24 359.26
  Q 918.46 360.49 914.27 359.01
  Q 913.82 358.85 913.43 359.12
  L 912.89 359.50
  Q 911.17 362.98 912.51 367.17
  Q 913.92 372.58 919.86 375.81
  L 935.45 386.41
  A 0.32 0.32 0.0 0 0 935.90 386.32
  L 941.84 377.42
  L 948.66 367.06
  L 952.89 360.62
  Q 953.17 360.18 952.81 359.81
  Q 950.58 357.52 949.73 355.11
  Q 948.00 350.87 948.98 346.24
  Q 951.01 340.03 956.01 336.25
  Q 961.00 333.36 966.57 334.37
  Q 980.09 338.21 978.04 352.30
  Q 976.53 359.10 970.64 362.23
  Q 964.13 365.48 957.65 363.23
  A 0.72 0.71 -61.2 0 0 956.84 363.47
  L 955.02 365.85
  L 946.40 378.74
  L 939.96 388.12
  A 1.21 1.20 -56.2 0 0 940.29 389.81
  Q 949.11 395.61 958.59 402.10
  Q 960.28 403.26 962.33 403.46
  Q 968.70 404.08 973.54 399.94
  A 0.56 0.56 0.0 0 0 973.60 399.14
  Q 966.45 391.08 971.15 381.08
  Q 973.60 377.00 977.28 374.84
  Q 991.08 370.01 996.88 380.21
  Q 999.35 384.54 998.94 388.83
  Q 998.42 394.31 994.84 398.17
  Q 988.23 405.31 977.69 402.22
  Q 977.17 402.07 976.75 402.41
  C 976.01 403.00 975.47 403.72 974.65 404.28
  Q 967.94 408.92 961.42 407.62
  Q 956.56 406.64 949.48 401.52
  Q 943.19 396.97 937.43 393.37
  Q 936.58 392.83 936.10 393.71
  L 935.53 394.75
  Q 935.06 395.59 935.85 396.15
  L 948.02 404.82
  L 953.96 409.47
  Q 963.50 417.13 971.89 425.82
  C 991.45 445.98 1004.67 470.67 1005.43 499.13
  C 1005.91 517.43 1000.67 536.39 992.43 552.78
  Q 991.19 555.23 990.94 558.14
  C 989.32 576.72 990.72 595.89 992.29 615.25
  C 992.53 618.17 990.71 620.71 987.77 620.71
  Q 924.41 620.71 859.94 620.71
  C 856.82 620.71 854.54 618.22 855.13 615.04
  Q 859.74 589.88 863.70 568.33
  Q 863.82 567.71 863.21 567.88
  Q 848.17 571.95 835.14 571.27
  C 800.13 569.44 791.35 539.00 792.12 509.57
  A 0.63 0.63 0.0 0 0 791.44 508.92
  C 782.64 509.60 770.98 508.44 764.52 502.04
  C 754.23 491.83 762.08 474.59 768.13 464.53
  Q 778.87 446.68 794.14 429.65
  Q 794.46 429.29 794.44 428.80
  C 792.78 400.15 795.90 369.90 811.47 345.69
  C 813.28 342.88 813.88 338.96 818.73 340.61
  Q 837.61 347.01 864.98 358.54
  Q 885.38 367.37 905.08 377.58
  L 914.08 382.62
  L 930.52 392.57
  Q 931.46 393.13 932.08 392.24
  L 932.65 391.43
  Q 933.27 390.55 932.37 389.95
  L 917.33 379.77
  Q 912.69 377.15 909.89 372.68
  Q 905.85 364.89 909.35 356.43
  A 0.76 0.75 -56.0 0 0 909.19 355.60
  C 902.46 348.85 903.90 338.26 911.43 332.57
  Q 916.80 328.52 923.52 330.00
  Q 929.32 331.28 932.33 336.34
  Z
  M 909.39 343.35
  Q 908.50 349.79 913.17 353.27
  Q 916.51 355.76 920.57 355.33
  Q 924.88 354.88 927.91 351.40
  Q 931.17 347.66 929.91 342.66
  Q 927.63 334.15 919.41 334.25
  C 917.14 334.27 913.94 336.10 912.53 337.27
  Q 910.43 339.03 909.39 343.35
  Z
  M 965.62 359.58
  Q 967.98 360.08 968.96 357.92
  Q 971.87 356.10 972.63 354.00
  Q 976.24 343.97 968.33 339.96
  Q 964.94 338.25 961.85 339.00
  C 956.25 340.35 952.89 345.17 953.56 350.91
  Q 954.14 355.95 958.95 358.52
  Q 960.19 359.19 962.22 359.25
  Q 964.05 359.30 965.62 359.58
  Z
  M 981.05 378.24
  Q 980.58 378.45 980.00 378.72
  Q 979.49 378.96 979.09 379.35
  C 977.34 381.05 975.44 381.70 974.68 384.29
  C 973.42 388.58 974.12 393.30 977.54 396.13
  Q 981.48 399.38 985.26 398.38
  Q 996.81 395.31 993.46 383.23
  Q 992.91 381.25 989.22 378.64
  Q 985.03 376.56 981.05 378.24
  Z
  M 881.11 425.57
  Q 875.08 427.14 870.37 430.67
  A 1.02 1.02 0.0 0 0 870.10 431.99
  Q 872.83 436.78 871.41 441.50
  Q 870.31 445.16 867.25 447.51
  C 865.43 448.91 860.86 451.17 858.50 450.14
  A 1.32 1.32 0.0 0 0 856.69 451.08
  Q 855.32 457.70 855.77 462.54
  Q 855.81 462.95 856.11 463.25
  Q 856.39 463.53 856.75 463.36
  Q 857.24 463.12 857.76 463.27
  C 859.44 463.76 861.00 463.46 862.57 464.42
  Q 870.97 469.51 867.94 479.30
  C 867.49 480.78 866.64 481.70 865.72 482.89
  Q 865.35 483.35 865.78 483.76
  Q 870.04 487.86 875.27 490.11
  Q 875.86 490.36 876.19 489.80
  Q 880.42 482.47 888.77 483.49
  Q 895.27 484.28 897.84 491.05
  Q 898.01 491.50 898.48 491.45
  C 902.16 491.09 905.79 488.17 908.98 486.50
  Q 910.04 485.94 909.39 484.94
  C 907.40 481.83 907.12 477.38 908.87 473.94
  Q 913.09 465.65 921.87 466.87
  Q 922.58 466.97 922.74 466.28
  Q 924.16 460.11 923.66 454.67
  Q 923.60 454.08 923.01 454.04
  Q 918.11 453.74 915.58 451.75
  Q 909.80 447.20 911.12 439.83
  C 911.49 437.73 912.57 435.70 913.83 433.97
  A 0.74 0.74 0.0 0 0 913.63 432.91
  Q 911.79 431.74 910.29 430.19
  C 908.72 428.55 906.45 428.42 904.62 426.88
  A 0.79 0.79 0.0 0 0 903.40 427.14
  C 902.21 429.58 899.50 432.07 896.88 432.88
  Q 886.03 436.25 881.66 425.84
  Q 881.50 425.47 881.11 425.57
  Z"
/>
<path fill="#ea3b3b" d="
  M 929.91 342.66
  Q 930.51 352.26 922.23 354.58
  Q 916.01 356.33 911.81 351.41
  Q 910.50 349.88 910.01 347.61
  Q 909.57 345.52 909.39 343.35
  Q 910.43 339.03 912.53 337.27
  C 913.94 336.10 917.14 334.27 919.41 334.25
  Q 927.63 334.15 929.91 342.66
  Z"
/>
<path fill="#d3cf46" d="
  M 968.96 357.92
  L 965.62 359.58
  Q 964.05 359.30 962.22 359.25
  Q 960.19 359.19 958.95 358.52
  Q 954.14 355.95 953.56 350.91
  C 952.89 345.17 956.25 340.35 961.85 339.00
  Q 964.94 338.25 968.33 339.96
  Q 976.24 343.97 972.63 354.00
  Q 971.87 356.10 968.96 357.92
  Z"
/>
<path fill="#000000" d="
  M 929.91 342.66
  Q 931.17 347.66 927.91 351.40
  Q 924.88 354.88 920.57 355.33
  Q 916.51 355.76 913.17 353.27
  Q 908.50 349.79 909.39 343.35
  Q 909.57 345.52 910.01 347.61
  Q 910.50 349.88 911.81 351.41
  Q 916.01 356.33 922.23 354.58
  Q 930.51 352.26 929.91 342.66
  Z"
/>
<path fill="#000000" d="
  M 933.65 349.47
  Q 940.12 356.95 949.73 355.11
  Q 950.58 357.52 952.81 359.81
  Q 953.17 360.18 952.89 360.62
  L 948.66 367.06
  Q 945.70 367.88 942.64 370.42
  Q 938.62 373.76 941.84 377.42
  L 935.90 386.32
  A 0.32 0.32 0.0 0 1 935.45 386.41
  L 919.86 375.81
  Q 924.92 368.04 923.24 359.26
  Q 930.51 357.14 933.65 349.47
  Z"
/>
<path fill="#203f86" d="
  M 557.28 376.59
  L 557.27 386.37
  L 482.50 386.36
  Q 481.83 386.36 481.68 387.01
  C 479.58 395.67 474.41 402.85 466.72 406.69
  C 444.86 417.58 420.32 397.85 426.63 374.21
  C 428.86 365.85 435.01 358.68 443.02 355.47
  C 460.06 348.64 477.53 358.48 481.74 376.12
  Q 481.86 376.63 482.39 376.63
  L 557.28 376.59
  Z"
/>
<path fill="#203f86" d="
  M 1241.72 386.46
  L 1241.64 376.55
  L 1316.47 376.54
  A 0.69 0.68 -82.9 0 0 1317.13 376.02
  C 1320.13 364.08 1328.52 355.58 1340.70 353.68
  C 1359.31 350.78 1374.97 366.34 1372.99 384.75
  C 1371.86 395.16 1364.85 404.03 1355.19 407.83
  C 1338.85 414.24 1320.86 404.23 1317.17 387.06
  Q 1317.06 386.50 1316.49 386.50
  L 1241.72 386.46
  Z"
/>
<path fill="#000000" d="
  M 968.96 357.92
  Q 967.98 360.08 965.62 359.58
  L 968.96 357.92
  Z"
/>
<path fill="#000000" d="
  M 912.89 359.50
  Q 913.62 363.34 912.51 367.17
  Q 911.17 362.98 912.89 359.50
  Z"
/>
<path fill="#000000" d="
  M 970.64 362.23
  Q 970.36 365.28 968.95 368.23
  A 0.81 0.81 0.0 0 1 967.88 368.61
  Q 961.84 365.80 955.02 365.85
  L 956.84 363.47
  A 0.72 0.71 -61.2 0 1 957.65 363.23
  Q 964.13 365.48 970.64 362.23
  Z"
/>
<path fill="#000000" d="
  M 971.15 381.08
  Q 966.45 391.08 973.60 399.14
  A 0.56 0.56 0.0 0 1 973.54 399.94
  Q 968.70 404.08 962.33 403.46
  Q 960.28 403.26 958.59 402.10
  Q 949.11 395.61 940.29 389.81
  A 1.21 1.20 -56.2 0 1 939.96 388.12
  L 946.40 378.74
  C 949.22 378.95 949.92 376.94 951.62 376.14
  C 958.08 373.09 965.60 377.17 971.15 381.08
  Z"
/>
<path fill="#000000" d="
  M 989.22 378.64
  Q 985.43 377.72 981.05 378.24
  Q 985.03 376.56 989.22 378.64
  Z"
/>
<path fill="#25993e" d="
  M 989.22 378.64
  Q 992.91 381.25 993.46 383.23
  Q 996.81 395.31 985.26 398.38
  Q 981.48 399.38 977.54 396.13
  C 974.12 393.30 973.42 388.58 974.68 384.29
  C 975.44 381.70 977.34 381.05 979.09 379.35
  Q 979.49 378.96 980.00 378.72
  Q 980.58 378.45 981.05 378.24
  Q 985.43 377.72 989.22 378.64
  Z"
/>
<path fill="#000000" d="
  M 917.33 379.77
  L 932.37 389.95
  Q 933.27 390.55 932.65 391.43
  L 932.08 392.24
  Q 931.46 393.13 930.52 392.57
  L 914.08 382.62
  Q 915.73 381.91 917.33 379.77
  Z"
/>
<path fill="#ea3b3b" d="
  M 881.11 425.57
  Q 881.50 425.47 881.66 425.84
  Q 886.03 436.25 896.88 432.88
  C 899.50 432.07 902.21 429.58 903.40 427.14
  A 0.79 0.79 0.0 0 1 904.62 426.88
  C 906.45 428.42 908.72 428.55 910.29 430.19
  Q 911.79 431.74 913.63 432.91
  A 0.74 0.74 0.0 0 1 913.83 433.97
  C 912.57 435.70 911.49 437.73 911.12 439.83
  Q 909.80 447.20 915.58 451.75
  Q 918.11 453.74 923.01 454.04
  Q 923.60 454.08 923.66 454.67
  Q 924.16 460.11 922.74 466.28
  Q 922.58 466.97 921.87 466.87
  Q 913.09 465.65 908.87 473.94
  C 907.12 477.38 907.40 481.83 909.39 484.94
  Q 910.04 485.94 908.98 486.50
  C 905.79 488.17 902.16 491.09 898.48 491.45
  Q 898.01 491.50 897.84 491.05
  Q 895.27 484.28 888.77 483.49
  Q 880.42 482.47 876.19 489.80
  Q 875.86 490.36 875.27 490.11
  Q 870.04 487.86 865.78 483.76
  Q 865.35 483.35 865.72 482.89
  C 866.64 481.70 867.49 480.78 867.94 479.30
  Q 870.97 469.51 862.57 464.42
  C 861.00 463.46 859.44 463.76 857.76 463.27
  Q 857.24 463.12 856.75 463.36
  Q 856.39 463.53 856.11 463.25
  Q 855.81 462.95 855.77 462.54
  Q 855.32 457.70 856.69 451.08
  A 1.32 1.32 0.0 0 1 858.50 450.14
  C 860.86 451.17 865.43 448.91 867.25 447.51
  Q 870.31 445.16 871.41 441.50
  Q 872.83 436.78 870.10 431.99
  A 1.02 1.02 0.0 0 1 870.37 430.67
  Q 875.08 427.14 881.11 425.57
  Z
  M 879.6484 473.0543
  A 17.70 17.15 124.8 0 0 903.8327 468.3077
  A 17.70 17.15 124.8 0 0 899.8516 443.9857
  A 17.70 17.15 124.8 0 0 875.6673 448.7323
  A 17.70 17.15 124.8 0 0 879.6484 473.0543
  Z"
/>
<path fill="#000000" d="
  M 879.6484 473.0543
  A 17.70 17.15 124.8 0 1 875.6673 448.7323
  A 17.70 17.15 124.8 0 1 899.8516 443.9857
  A 17.70 17.15 124.8 0 1 903.8327 468.3077
  A 17.70 17.15 124.8 0 1 879.6484 473.0543
  Z
  M 884.85 447.00
  A 12.79 12.36 -59.6 0 0 877.61 455.91
  A 12.81 12.38 -58.8 0 0 880.47 467.28
  A 12.79 12.37 -60.8 0 0 888.75 471.18
  A 12.80 12.38 -58.7 0 0 900.83 464.02
  A 12.78 12.36 -58.9 0 0 900.78 452.23
  A 12.79 12.36 -59.9 0 0 889.79 445.83
  A 12.83 12.31 -58.3 0 0 884.85 447.00
  Z"
/>
<path fill="#000000" d="
  M 649.29 448.09
  L 657.84 444.02
  A 0.33 0.33 0.0 0 1 658.31 444.32
  L 658.30 519.72
  A 0.33 0.33 0.0 0 1 657.83 520.02
  L 649.23 516.04
  A 0.33 0.33 0.0 0 0 648.95 516.05
  L 640.43 520.08
  A 0.33 0.33 0.0 0 1 639.96 519.78
  L 639.96 444.36
  A 0.33 0.33 0.0 0 1 640.43 444.06
  L 649.01 448.09
  A 0.33 0.33 0.0 0 0 649.29 448.09
  Z"
/>
<path fill="#000000" d="
  M 1149.34 516.32
  L 1141.43 519.78
  A 0.46 0.46 0.0 0 1 1140.79 519.36
  L 1140.79 444.50
  Q 1140.79 443.78 1141.43 444.10
  L 1149.26 447.95
  Q 1149.76 448.20 1150.26 447.96
  L 1158.38 444.15
  Q 1158.98 443.87 1158.98 444.53
  Q 1158.95 477.66 1158.97 510.62
  Q 1158.97 515.07 1158.69 519.52
  Q 1158.66 520.02 1158.20 519.81
  L 1150.56 516.33
  A 1.49 1.48 45.2 0 0 1149.34 516.32
  Z"
/>
<path fill="#25993e" d="
  M 889.79 445.83
  L 884.85 447.00
  A 12.83 12.31 -58.3 0 1 889.79 445.83
  Z"
/>
<path fill="#d3cf46" d="
  M 889.79 445.83
  A 12.79 12.36 -59.9 0 1 900.78 452.23
  A 12.78 12.36 -58.9 0 1 900.83 464.02
  A 12.80 12.38 -58.7 0 1 888.75 471.18
  A 12.79 12.37 -60.8 0 1 880.47 467.28
  A 12.81 12.38 -58.8 0 1 877.61 455.91
  A 12.79 12.36 -59.6 0 1 884.85 447.00
  L 889.79 445.83
  Z"
/>
<path fill="#203f86" d="
  M 615.51 543.73
  L 605.31 548.59
  L 559.71 503.00
  Q 559.22 502.51 558.54 502.51
  L 542.94 502.51
  A 0.81 0.81 0.0 0 0 542.14 503.18
  C 538.03 526.82 516.43 542.51 492.66 537.48
  C 477.70 534.31 465.83 523.45 461.62 508.81
  C 455.68 488.17 466.55 465.74 486.95 458.51
  C 512.58 449.43 537.46 465.33 542.16 491.44
  Q 542.26 491.99 542.82 491.99
  Q 551.55 492.00 562.23 491.99
  Q 563.74 491.98 564.87 493.12
  Q 590.13 518.40 615.51 543.73
  Z"
/>
<path fill="#203f86" d="
  M 1193.57 548.57
  L 1183.44 543.68
  L 1234.85 492.31
  A 1.14 1.13 22.9 0 1 1235.64 491.99
  L 1255.96 492.00
  Q 1256.51 492.00 1256.60 491.46
  C 1259.78 473.74 1272.39 459.87 1290.17 456.64
  C 1303.62 454.20 1318.47 458.85 1327.78 468.98
  C 1348.68 491.72 1338.56 528.78 1308.49 536.95
  C 1298.75 539.60 1287.66 538.68 1278.59 533.82
  Q 1260.74 524.26 1256.65 503.08
  Q 1256.54 502.51 1255.96 502.51
  L 1240.26 502.51
  Q 1239.67 502.51 1239.25 502.93
  L 1193.57 548.57
  Z"
/>
<path fill="#ea3b3b" d="
  M 605.31 548.59
  L 615.51 543.73
  L 648.59 527.90
  Q 649.07 527.66 649.56 527.90
  L 733.17 567.84
  A 0.18 0.18 0.0 0 1 733.17 568.16
  L 649.57 608.11
  A 1.06 1.06 0.0 0 1 648.67 608.11
  L 565.10 568.16
  A 0.19 0.19 0.0 0 1 565.10 567.82
  L 605.31 548.59
  Z"
/>
<path fill="#ea3b3b" d="
  M 1183.44 543.68
  L 1193.57 548.57
  L 1233.52 567.74
  Q 1234.13 568.03 1233.52 568.32
  L 1150.37 608.07
  Q 1149.85 608.32 1149.32 608.07
  L 1066.01 568.23
  A 0.27 0.27 0.0 0 1 1066.01 567.75
  L 1148.40 528.38
  A 3.46 3.46 0.0 0 1 1151.38 528.38
  L 1183.44 543.68
  Z"
/>
<path fill="#ea3b3b" d="
  M 1143.78 721.15
  L 1058.16 680.27
  A 0.33 0.33 0.0 0 1 1057.97 679.97
  L 1057.96 577.43
  A 0.33 0.33 0.0 0 1 1058.43 577.14
  L 1143.99 618.00
  A 0.33 0.33 0.0 0 1 1144.18 618.30
  L 1144.25 720.86
  A 0.33 0.33 0.0 0 1 1143.78 721.15
  Z"
/>
<path fill="#ea3b3b" d="
  M 601.10 701.16
  L 592.92 697.19
  L 557.79 680.38
  Q 557.34 680.16 557.34 679.66
  L 557.28 641.34
  L 557.31 625.23
  L 557.30 577.70
  Q 557.30 576.94 557.99 577.26
  L 643.24 618.04
  A 0.48 0.48 0.0 0 1 643.51 618.47
  L 643.49 720.81
  A 0.39 0.38 12.8 0 1 642.94 721.15
  L 601.10 701.16
  Z"
/>
<path fill="#ea3b3b" d="
  M 740.78 680.28
  L 655.26 721.14
  A 0.33 0.33 0.0 0 1 654.79 720.85
  L 654.80 618.32
  A 0.33 0.33 0.0 0 1 654.99 618.02
  L 740.50 577.16
  A 0.33 0.33 0.0 0 1 740.97 577.45
  L 740.97 679.98
  A 0.33 0.33 0.0 0 1 740.78 680.28
  Z"
/>
<path fill="#ea3b3b" d="
  M 1241.68 625.17
  L 1241.63 641.29
  L 1241.63 679.63
  Q 1241.63 680.12 1241.18 680.34
  L 1206.02 697.22
  L 1197.76 701.20
  L 1155.90 721.20
  A 0.25 0.25 0.0 0 1 1155.54 720.97
  L 1155.50 618.48
  A 0.51 0.51 0.0 0 1 1155.79 618.02
  L 1241.15 577.20
  Q 1241.71 576.94 1241.71 577.55
  L 1241.68 625.17
  Z"
/>
<path fill="#203f86" d="
  M 557.31 625.23
  L 557.28 641.34
  L 519.05 641.45
  Q 518.50 641.45 518.39 641.98
  C 513.04 667.34 486.22 681.50 462.24 672.18
  C 447.24 666.36 437.21 652.99 435.83 637.02
  C 433.71 612.45 452.49 591.72 477.02 591.51
  C 497.35 591.34 513.75 604.83 518.39 624.47
  Q 518.51 624.98 519.04 624.99
  L 557.31 625.23
  Z"
/>
<path fill="#203f86" d="
  M 1241.63 641.29
  L 1241.68 625.17
  L 1279.68 625.18
  Q 1280.22 625.18 1280.35 624.66
  C 1284.35 607.77 1297.32 594.86 1314.31 592.01
  C 1327.32 589.82 1341.49 594.13 1350.77 603.41
  C 1363.44 616.10 1366.67 634.92 1359.30 650.92
  C 1345.54 680.79 1303.65 683.54 1286.06 655.62
  Q 1282.03 649.23 1280.38 641.91
  Q 1280.24 641.30 1279.60 641.30
  L 1241.63 641.29
  Z"
/>
<path fill="#000000" d="
  M 751.50 686.69
  L 751.51 674.49
  A 0.35 0.35 0.0 0 1 752.03 674.18
  L 808.56 706.83
  A 0.35 0.35 0.0 0 1 808.53 707.45
  L 797.22 712.78
  A 0.35 0.35 0.0 0 0 797.02 713.09
  L 797.01 720.63
  A 0.35 0.35 0.0 0 1 796.49 720.94
  L 744.39 690.86
  A 0.35 0.35 0.0 0 1 744.42 690.24
  L 751.30 687.00
  A 0.35 0.35 0.0 0 0 751.50 686.69
  Z"
/>
<path fill="#000000" d="
  M 1047.68 687.04
  L 1054.42 690.16
  A 0.42 0.42 0.0 0 1 1054.45 690.90
  L 1002.60 720.88
  A 0.42 0.42 0.0 0 1 1001.97 720.52
  L 1001.89 713.07
  A 0.42 0.42 0.0 0 0 1001.65 712.70
  L 990.57 707.53
  A 0.42 0.42 0.0 0 1 990.54 706.79
  L 1046.77 674.27
  A 0.42 0.42 0.0 0 1 1047.40 674.64
  L 1047.44 686.66
  A 0.42 0.42 0.0 0 0 1047.68 687.04
  Z"
/>
<path fill="#d3cf46" d="
  M 983.26 716.32
  L 899.64 756.24
  A 0.34 0.34 0.0 0 1 899.34 756.24
  L 815.74 716.32
  A 0.34 0.34 0.0 0 1 815.74 715.70
  L 899.33 675.76
  A 0.34 0.34 0.0 0 1 899.63 675.76
  L 983.26 715.70
  A 0.34 0.34 0.0 0 1 983.26 716.32
  Z"
/>
<path fill="#203f86" d="
  M 1206.02 697.22
  L 1223.64 710.20
  Q 1224.08 710.52 1224.47 710.14
  Q 1234.83 699.88 1248.21 699.93
  C 1278.24 700.03 1291.89 737.15 1269.33 756.71
  C 1258.28 766.29 1241.92 767.24 1230.02 758.97
  C 1216.44 749.53 1212.39 733.15 1219.08 718.08
  Q 1219.49 717.14 1218.66 716.53
  L 1197.76 701.20
  L 1206.02 697.22
  Z"
/>
<path fill="#203f86" d="
  M 592.92 697.19
  L 601.10 701.16
  L 579.72 716.89
  Q 579.34 717.17 579.54 717.60
  Q 582.46 723.81 582.89 730.25
  C 584.58 755.25 557.75 772.72 535.45 760.79
  C 516.15 750.46 512.11 723.37 528.60 708.56
  C 542.23 696.33 561.41 697.14 574.33 710.16
  Q 574.72 710.55 575.16 710.22
  L 592.92 697.19
  Z"
/>
<path fill="#d3cf46" d="
  M 850.06 848.47
  L 839.48 843.40
  L 807.92 828.35
  A 0.62 0.60 13.7 0 1 807.58 827.81
  L 807.68 789.99
  L 807.72 779.49
  L 807.80 725.52
  Q 807.80 725.01 808.26 725.23
  L 893.26 765.86
  Q 893.78 766.11 893.78 766.69
  L 893.79 868.89
  A 0.33 0.33 0.0 0 1 893.32 869.19
  L 850.06 848.47
  Z"
/>
<path fill="#d3cf46" d="
  M 991.29 779.42
  L 991.28 790.03
  L 991.18 827.72
  Q 991.18 828.23 990.72 828.44
  L 959.35 843.47
  L 948.72 848.58
  L 905.74 869.16
  Q 905.07 869.48 905.07 868.74
  L 905.08 766.56
  A 0.61 0.60 77.9 0 1 905.43 766.01
  L 990.91 725.14
  A 0.27 0.27 0.0 0 1 991.29 725.38
  L 991.29 779.42
  Z"
/>
<path fill="#203f86" d="
  M 991.29 779.42
  L 1049.73 779.40
  Q 1050.24 779.40 1050.60 779.76
  L 1086.73 815.89
  Q 1087.24 816.40 1087.82 815.97
  C 1104.84 803.56 1128.03 805.93 1142.31 820.76
  C 1157.32 836.35 1157.39 860.51 1143.40 876.36
  C 1132.07 889.19 1114.00 894.07 1098.02 887.85
  C 1071.97 877.71 1063.24 846.98 1079.41 824.42
  Q 1079.72 823.98 1079.34 823.59
  L 1046.47 790.78
  A 1.79 1.76 66.9 0 0 1045.23 790.27
  L 991.28 790.03
  L 991.29 779.42
  Z"
/>
<path fill="#203f86" d="
  M 807.72 779.49
  L 807.68 789.99
  L 754.27 790.00
  A 2.85 2.83 22.3 0 0 752.26 790.83
  L 719.58 823.54
  Q 719.18 823.94 719.50 824.41
  Q 733.38 844.81 723.60 866.97
  Q 719.48 876.32 710.38 882.61
  Q 691.32 895.81 669.99 887.09
  Q 659.95 882.99 653.03 873.33
  Q 641.42 857.10 646.74 837.89
  C 654.47 810.05 687.92 799.10 711.11 816.13
  A 0.67 0.66 -49.2 0 0 711.98 816.06
  L 747.68 780.42
  A 2.80 2.77 -67.3 0 1 749.65 779.60
  L 807.72 779.49
  Z"
/>
<path fill="#203f86" d="
  M 839.48 843.40
  L 850.06 848.47
  L 850.11 874.32
  Q 850.11 874.87 849.73 875.26
  L 824.00 900.98
  A 0.94 0.94 0.0 0 0 823.83 902.07
  Q 830.57 915.70 823.59 927.38
  C 816.02 940.05 799.18 943.05 787.61 934.32
  C 778.26 927.26 775.23 914.50 780.29 903.99
  C 786.84 890.41 802.61 886.61 815.54 893.56
  Q 816.04 893.82 816.44 893.42
  L 839.06 870.77
  Q 839.44 870.39 839.44 869.86
  L 839.48 843.40
  Z"
/>
<path fill="#203f86" d="
  M 959.35 843.47
  L 959.36 869.79
  Q 959.36 870.36 959.76 870.75
  L 982.38 893.40
  Q 982.85 893.87 983.44 893.56
  Q 986.49 891.94 989.72 891.01
  C 1005.95 886.30 1021.55 899.12 1020.90 915.78
  C 1020.42 928.12 1011.00 937.95 998.76 939.14
  C 977.99 941.18 965.39 919.28 975.14 901.80
  A 0.51 0.51 0.0 0 0 975.06 901.20
  L 948.92 875.09
  Q 948.75 874.93 948.75 874.69
  L 948.72 848.58
  L 959.35 843.47
  Z"
/>
<path fill="#000000" d="
  M 1565.77 1076.41
  C 1561.04 1089.15 1549.03 1092.38 1536.58 1092.49
  Q 1520.93 1092.62 1506.81 1092.47
  C 1492.92 1092.32 1479.10 1087.83 1473.37 1074.46
  Q 1469.58 1065.59 1469.32 1053.62
  Q 1468.99 1037.86 1469.40 1022.44
  Q 1469.58 1015.82 1471.34 1008.87
  C 1475.66 991.79 1489.33 985.56 1505.96 985.12
  Q 1523.04 984.66 1535.05 985.11
  Q 1549.87 985.67 1556.69 999.11
  Q 1557.32 1000.36 1557.32 998.96
  L 1557.32 952.59
  Q 1557.32 951.96 1557.91 951.76
  L 1583.62 943.11
  Q 1584.20 942.92 1584.20 943.52
  L 1584.20 1091.30
  Q 1584.20 1093.02 1582.51 1092.69
  Q 1567.25 1089.74 1566.16 1076.46
  A 0.20 0.20 0.0 0 0 1565.77 1076.41
  Z
  M 1495.82 1050.57
  C 1495.91 1060.45 1497.70 1069.35 1509.86 1069.35
  Q 1525.73 1069.35 1541.65 1069.37
  C 1551.27 1069.39 1557.46 1063.03 1557.37 1053.73
  Q 1557.22 1037.60 1557.37 1020.99
  C 1557.44 1012.99 1551.91 1008.26 1543.82 1008.24
  Q 1530.50 1008.21 1515.30 1008.07
  C 1506.16 1007.99 1498.85 1008.21 1496.81 1018.22
  Q 1495.84 1023.00 1495.80 1027.77
  Q 1495.72 1038.90 1495.82 1050.57
  Z"
/>
<rect fill="#000000" x="717.12" y="947.15" width="27.08" height="28.60" rx="0.46"/>
<rect fill="#ea3b3b" x="1608.77" y="947.19" width="26.94" height="28.54" rx="0.42"/>
<path fill="#000000" d="
  M 1288.43 984.96
  L 1309.45 984.93
  A 0.45 0.45 0.0 0 1 1309.89 985.45
  L 1306.82 1004.33
  A 0.66 0.65 -85.3 0 1 1306.18 1004.88
  L 1288.24 1004.86
  Q 1287.67 1004.86 1287.66 1005.43
  Q 1287.56 1026.91 1287.74 1046.48
  C 1287.82 1055.18 1290.31 1067.21 1299.58 1070.05
  Q 1308.88 1072.90 1317.93 1068.79
  Q 1318.48 1068.55 1318.37 1069.13
  L 1314.68 1090.47
  A 2.15 2.14 -4.1 0 1 1313.23 1092.14
  Q 1299.49 1096.67 1285.60 1092.87
  C 1264.68 1087.13 1260.91 1062.78 1260.84 1044.33
  Q 1260.76 1025.99 1260.82 1005.38
  Q 1260.82 1004.84 1260.27 1004.84
  L 1249.29 1004.87
  Q 1248.69 1004.88 1248.79 1004.29
  L 1251.80 985.52
  Q 1251.90 984.94 1252.48 984.94
  L 1260.29 984.96
  Q 1260.80 984.96 1260.80 984.46
  L 1260.80 961.54
  Q 1260.80 961.10 1261.22 960.96
  L 1286.98 952.50
  A 0.51 0.51 0.0 0 1 1287.65 952.99
  L 1287.65 984.18
  Q 1287.65 984.96 1288.43 984.96
  Z"
/>
<path fill="#000000" d="
  M 106.50 1048.94
  L 106.51 1091.71
  A 0.87 0.87 0.0 0 1 105.64 1092.58
  L 80.26 1092.57
  A 0.81 0.81 0.0 0 1 79.45 1091.76
  L 79.47 955.80
  Q 79.47 955.51 79.75 955.51
  Q 133.26 955.44 186.18 955.56
  Q 191.98 955.58 199.45 956.99
  Q 218.51 960.61 222.18 979.51
  C 224.21 990.03 223.87 1000.91 223.70 1011.57
  C 223.45 1026.75 219.83 1040.93 203.74 1045.58
  Q 195.02 1048.11 186.22 1048.13
  Q 147.77 1048.21 107.29 1048.15
  Q 106.50 1048.15 106.50 1048.94
  Z
  M 196.89 995.33
  C 196.69 987.56 192.76 982.80 184.71 982.79
  Q 144.59 982.74 106.98 982.78
  A 0.48 0.47 0.0 0 0 106.50 983.25
  L 106.51 1022.97
  A 0.69 0.69 0.0 0 0 107.20 1023.66
  Q 144.58 1023.66 182.10 1023.62
  C 191.10 1023.62 196.70 1020.74 196.91 1010.72
  Q 197.08 1002.95 196.89 995.33
  Z"
/>
<path fill="#000000" d="
  M 267.85 1065.48
  Q 268.12 1065.63 268.44 1065.63
  Q 322.11 1065.57 375.93 1065.61
  A 0.59 0.59 0.0 0 1 376.52 1066.20
  L 376.51 1092.03
  A 0.54 0.54 0.0 0 1 375.97 1092.57
  L 240.29 1092.56
  Q 239.96 1092.56 239.95 1092.22
  Q 239.83 1069.67 240.01 1047.53
  C 240.06 1040.68 241.84 1032.43 245.89 1026.61
  C 253.60 1015.50 269.81 1012.95 282.16 1012.90
  Q 308.31 1012.81 333.14 1012.89
  C 340.92 1012.92 349.35 1012.52 350.17 1002.65
  Q 350.83 994.64 349.45 989.37
  C 347.99 983.79 341.73 982.79 336.75 982.78
  Q 292.61 982.74 248.84 982.78
  A 0.58 0.58 0.0 0 1 248.26 982.20
  L 248.26 955.78
  A 0.27 0.27 0.0 0 1 248.53 955.51
  Q 291.73 955.47 334.96 955.52
  Q 344.94 955.54 353.90 957.79
  Q 375.21 963.14 377.47 985.74
  Q 378.88 999.76 377.10 1011.76
  C 375.13 1025.06 365.49 1031.81 353.05 1034.04
  Q 345.25 1035.43 338.34 1035.42
  Q 309.93 1035.37 282.85 1035.50
  C 279.06 1035.52 272.69 1036.50 270.11 1039.67
  Q 267.74 1042.58 267.62 1046.75
  Q 267.34 1056.12 267.56 1065.00
  Q 267.57 1065.32 267.85 1065.48
  Z"
/>
<path fill="#000000" d="
  M 427.46 1065.59
  L 531.47 1065.62
  A 0.34 0.34 0.0 0 1 531.81 1065.96
  L 531.80 1092.22
  A 0.34 0.34 0.0 0 1 531.46 1092.56
  L 400.52 1092.56
  A 0.34 0.34 0.0 0 1 400.18 1092.22
  L 400.18 955.84
  A 0.34 0.34 0.0 0 1 400.52 955.50
  L 531.47 955.50
  A 0.34 0.34 0.0 0 1 531.81 955.84
  L 531.80 982.43
  A 0.34 0.34 0.0 0 1 531.46 982.77
  L 427.46 982.76
  A 0.34 0.34 0.0 0 0 427.12 983.10
  L 427.12 1012.53
  A 0.34 0.34 0.0 0 0 427.46 1012.87
  L 528.41 1012.87
  A 0.34 0.34 0.0 0 1 528.75 1013.21
  L 528.75 1034.73
  A 0.34 0.34 0.0 0 1 528.41 1035.07
  L 427.46 1035.07
  A 0.34 0.34 0.0 0 0 427.12 1035.41
  L 427.12 1065.25
  A 0.34 0.34 0.0 0 0 427.46 1065.59
  Z"
/>
<path fill="#000000" d="
  M 1230.34 982.89
  Q 1182.43 982.94 1138.07 982.88
  C 1131.12 982.87 1123.59 983.73 1121.86 991.87
  C 1120.48 998.38 1120.71 1008.78 1128.12 1011.41
  Q 1132.22 1012.86 1136.73 1012.86
  Q 1164.74 1012.84 1197.07 1012.93
  Q 1207.52 1012.95 1217.04 1015.65
  Q 1236.16 1021.07 1238.23 1041.08
  Q 1239.77 1056.05 1237.06 1068.60
  C 1232.64 1089.10 1213.32 1092.53 1195.71 1092.55
  Q 1148.83 1092.61 1097.56 1092.53
  A 0.31 0.31 0.0 0 1 1097.25 1092.20
  L 1099.05 1066.04
  Q 1099.07 1065.64 1099.48 1065.64
  Q 1145.78 1065.57 1191.87 1065.65
  C 1199.54 1065.66 1209.05 1065.32 1210.50 1055.66
  C 1211.25 1050.67 1211.34 1043.41 1207.79 1039.44
  C 1204.91 1036.21 1198.43 1035.42 1194.49 1035.43
  Q 1164.30 1035.48 1133.93 1035.38
  C 1124.83 1035.35 1114.41 1033.80 1107.05 1029.26
  C 1098.36 1023.89 1094.93 1014.85 1094.15 1004.94
  C 1093.41 995.46 1093.45 984.95 1096.29 975.79
  C 1101.50 958.94 1119.92 955.60 1135.00 955.56
  Q 1179.80 955.45 1233.46 955.52
  Q 1234.17 955.52 1234.09 956.23
  L 1230.87 982.43
  A 0.54 0.53 3.7 0 1 1230.34 982.89
  Z"
/>
<path fill="#000000" d="
  M 1427.27 1076.78
  C 1423.17 1087.90 1412.48 1092.13 1401.20 1092.40
  Q 1390.32 1092.66 1372.55 1092.52
  C 1354.27 1092.37 1339.39 1086.80 1334.92 1067.55
  Q 1333.19 1060.09 1333.16 1052.92
  Q 1333.06 1022.60 1333.13 985.32
  A 0.37 0.37 0.0 0 1 1333.50 984.95
  L 1359.06 984.93
  Q 1359.76 984.93 1359.76 985.62
  Q 1359.70 1021.07 1359.78 1055.24
  C 1359.80 1063.72 1364.48 1069.42 1373.52 1069.36
  Q 1387.04 1069.26 1402.83 1069.43
  C 1409.98 1069.51 1414.41 1068.40 1417.70 1062.33
  Q 1419.09 1059.78 1419.09 1055.60
  Q 1419.01 1020.30 1419.06 985.53
  A 0.61 0.60 -89.5 0 1 1419.66 984.93
  L 1445.19 984.93
  Q 1445.91 984.93 1445.91 985.66
  L 1445.91 1092.01
  A 0.64 0.63 -87.9 0 1 1445.23 1092.65
  Q 1430.31 1091.44 1427.72 1076.82
  Q 1427.57 1075.97 1427.27 1076.78
  Z"
/>
<path fill="#ea3b3b" d="
  M 578.69 999.64
  C 584.14 990.32 590.07 985.17 601.83 985.04
  Q 618.98 984.85 632.83 985.14
  C 635.95 985.21 639.26 985.76 642.33 986.37
  Q 661.54 990.18 666.41 1008.34
  Q 668.55 1016.32 668.58 1024.19
  Q 668.70 1056.50 668.62 1091.91
  Q 668.62 1092.52 668.01 1092.52
  L 642.52 1092.52
  Q 641.96 1092.52 641.96 1091.96
  Q 642.02 1059.86 641.94 1024.02
  C 641.92 1014.28 638.29 1008.21 628.07 1008.16
  Q 612.94 1008.07 591.59 1008.18
  Q 583.98 1008.22 580.65 1014.99
  Q 579.22 1017.90 579.23 1022.12
  Q 579.32 1058.03 579.25 1092.02
  Q 579.24 1092.52 578.74 1092.52
  L 553.41 1092.52
  Q 552.80 1092.52 552.80 1091.91
  L 552.80 985.59
  Q 552.80 984.99 553.41 984.99
  L 577.75 984.98
  Q 578.28 984.98 578.28 985.50
  L 578.27 999.53
  A 0.23 0.22 -30.1 0 0 578.69 999.64
  Z"
/>
<path fill="#ea3b3b" d="
  M 743.87 1074.69
  C 743.81 1093.82 739.41 1114.21 719.00 1121.20
  C 707.13 1125.26 690.87 1124.11 678.82 1119.44
  Q 678.34 1119.25 678.41 1118.74
  L 681.71 1094.20
  A 0.29 0.29 0.0 0 1 682.11 1093.97
  Q 690.98 1097.55 700.99 1097.00
  C 714.66 1096.25 717.37 1084.14 717.37 1072.86
  Q 717.36 1033.25 717.37 985.38
  Q 717.37 984.98 717.78 984.98
  L 743.51 984.98
  A 0.39 0.39 0.0 0 1 743.90 985.37
  Q 744.00 1032.92 743.87 1074.69
  Z"
/>
<path fill="#ea3b3b" d="
  M 784.83 1088.39
  C 772.08 1082.90 767.85 1069.92 767.76 1056.82
  Q 767.65 1038.66 767.75 1020.92
  C 767.84 1006.33 772.78 993.05 787.57 988.05
  Q 796.17 985.14 805.78 985.06
  Q 825.55 984.90 846.17 984.98
  Q 858.08 985.02 867.80 988.70
  C 880.64 993.56 885.61 1006.01 885.87 1019.22
  Q 886.29 1040.21 885.86 1059.15
  Q 885.67 1067.84 881.93 1075.95
  C 876.17 1088.45 861.49 1092.29 848.31 1092.43
  Q 828.97 1092.64 805.40 1092.45
  Q 794.05 1092.36 784.83 1088.39
  Z
  M 859.2627 1020.0367
  A 11.81 11.81 0.0 0 0 847.4734 1008.2061
  L 806.1534 1008.1340
  A 11.81 11.81 0.0 0 0 794.3228 1019.9234
  L 794.2573 1057.4833
  A 11.81 11.81 0.0 0 0 806.0466 1069.3139
  L 847.3666 1069.3860
  A 11.81 11.81 0.0 0 0 859.1972 1057.5966
  L 859.2627 1020.0367
  Z"
/>
<path fill="#ea3b3b" d="
  M 958.88 1063.91
  L 993.18 985.50
  Q 993.41 984.97 993.98 984.97
  L 1021.29 984.97
  A 0.32 0.32 0.0 0 1 1021.58 985.42
  Q 996.78 1037.39 971.40 1090.57
  C 963.45 1107.22 951.86 1120.40 933.09 1122.95
  Q 920.95 1124.60 906.77 1122.25
  Q 902.23 1121.50 897.33 1119.26
  Q 896.84 1119.03 897.08 1118.55
  L 908.94 1094.41
  Q 909.21 1093.86 909.77 1094.12
  Q 918.91 1098.39 929.51 1097.49
  Q 939.19 1096.66 944.43 1087.94
  A 0.76 0.75 47.7 0 0 944.46 1087.22
  L 892.02 985.30
  A 0.23 0.23 0.0 0 1 892.22 984.97
  L 921.20 984.97
  A 0.36 0.36 0.0 0 1 921.52 985.17
  L 958.33 1063.92
  A 0.30 0.30 0.0 0 0 958.88 1063.91
  Z"
/>
<rect fill="#000000" x="1608.76" y="984.95" width="26.72" height="107.60" rx="0.41"/>
<path fill="#000000" d="
  M 1773.88 1076.52
  C 1768.83 1086.70 1758.38 1090.59 1747.29 1092.08
  Q 1744.42 1092.47 1731.24 1092.54
  Q 1712.86 1092.63 1696.00 1092.44
  Q 1690.77 1092.39 1683.68 1090.71
  C 1666.44 1086.65 1660.03 1073.48 1659.93 1056.75
  Q 1659.82 1039.73 1659.89 1021.68
  C 1659.95 1005.45 1665.39 991.87 1682.01 987.29
  C 1688.13 985.61 1694.00 985.04 1700.26 984.99
  Q 1722.02 984.81 1741.50 985.08
  Q 1748.76 985.18 1756.73 987.52
  C 1773.94 992.55 1778.10 1006.89 1778.21 1022.91
  Q 1778.30 1036.09 1778.25 1047.75
  C 1778.19 1059.84 1778.25 1067.73 1773.88 1076.52
  Z
  M 1751.4427 1020.0667
  A 11.82 11.82 0.0 0 0 1739.6433 1008.2261
  L 1698.3834 1008.1540
  A 11.82 11.82 0.0 0 0 1686.5428 1019.9534
  L 1686.4773 1057.4533
  A 11.82 11.82 0.0 0 0 1698.2767 1069.2939
  L 1739.5366 1069.3660
  A 11.82 11.82 0.0 0 0 1751.3772 1057.5666
  L 1751.4427 1020.0667
  Z"
/>
</svg>
